<svg width="213" height="30" viewBox="0 0 213 30" fill="none" xmlns="http://www.w3.org/2000/svg">
<path d="M6.99987 24L0.503867 3.7H7.55087L12.7999 20.839H9.26187L14.8299 3.7H21.1229L26.3139 20.839H22.9209L28.4019 3.7H34.8979L28.4019 24H21.0649L16.8309 9.964H18.8029L14.3369 24H6.99987ZM36.4176 24V3.7H46.1906C48.0853 3.7 49.719 4.00933 51.0916 4.628C52.4836 5.24667 53.5566 6.136 54.3106 7.296C55.0646 8.43667 55.4417 9.79 55.4417 11.356C55.4417 12.922 55.0646 14.2753 54.3106 15.416C53.5566 16.5567 52.4836 17.446 51.0916 18.084C49.719 18.7027 48.0853 19.012 46.1906 19.012H40.2166L43.2616 16.083V24H36.4176ZM43.2616 16.837L40.2166 13.734H45.7556C46.703 13.734 47.399 13.5213 47.8436 13.096C48.3076 12.6707 48.5396 12.0907 48.5396 11.356C48.5396 10.6213 48.3076 10.0413 47.8436 9.616C47.399 9.19067 46.703 8.978 45.7556 8.978H40.2166L43.2616 5.875V16.837Z" fill="url(#paint0_linear_1_720)"/>
<path d="M66.6637 24V3.7H77.5097C80.3131 3.7 82.3817 4.20267 83.7157 5.208C85.0497 6.194 85.7167 7.46033 85.7167 9.007C85.7167 10.0317 85.4267 10.95 84.8467 11.762C84.2861 12.5547 83.4644 13.183 82.3817 13.647C81.2991 14.111 79.9651 14.343 78.3797 14.343L78.9597 12.777C80.5451 12.777 81.9081 12.9993 83.0487 13.444C84.2087 13.8887 85.0981 14.5363 85.7167 15.387C86.3547 16.2183 86.6737 17.2237 86.6737 18.403C86.6737 20.1623 85.9391 21.535 84.4697 22.521C83.0197 23.507 80.8931 24 78.0897 24H66.6637ZM73.3917 19.215H77.5097C78.2637 19.215 78.8244 19.0797 79.1917 18.809C79.5784 18.5383 79.7717 18.142 79.7717 17.62C79.7717 17.098 79.5784 16.7017 79.1917 16.431C78.8244 16.1603 78.2637 16.025 77.5097 16.025H72.9277V11.501H76.5817C77.3551 11.501 77.9157 11.3753 78.2637 11.124C78.6311 10.8533 78.8147 10.4763 78.8147 9.993C78.8147 9.49033 78.6311 9.11333 78.2637 8.862C77.9157 8.61067 77.3551 8.485 76.5817 8.485H73.3917V19.215ZM88.8904 24V2.482H95.4444V24H88.8904ZM104.961 24.29C103.705 24.29 102.564 24.0387 101.539 23.536C100.534 23.014 99.7414 22.2117 99.1614 21.129C98.5814 20.027 98.2914 18.6157 98.2914 16.895V8.137H104.845V15.764C104.845 16.8853 105.029 17.6683 105.396 18.113C105.764 18.5577 106.266 18.78 106.904 18.78C107.291 18.78 107.649 18.6833 107.977 18.49C108.325 18.2773 108.606 17.939 108.818 17.475C109.031 16.9917 109.137 16.3633 109.137 15.59V8.137H115.691V24H109.456V19.418L110.703 20.665C110.143 21.9023 109.34 22.8207 108.296 23.42C107.272 24 106.16 24.29 104.961 24.29ZM127.356 24.29C125.423 24.29 123.731 23.9323 122.281 23.217C120.851 22.5017 119.739 21.5253 118.946 20.288C118.154 19.0313 117.757 17.62 117.757 16.054C117.757 14.4493 118.144 13.0283 118.917 11.791C119.71 10.5537 120.783 9.587 122.136 8.891C123.509 8.195 125.046 7.847 126.747 7.847C128.313 7.847 129.754 8.15633 131.068 8.775C132.402 9.39367 133.466 10.312 134.258 11.53C135.07 12.748 135.476 14.256 135.476 16.054C135.476 16.286 135.467 16.547 135.447 16.837C135.428 17.1077 135.409 17.359 135.389 17.591H123.18V14.43H131.909L129.444 15.271C129.444 14.6523 129.328 14.1303 129.096 13.705C128.884 13.2603 128.584 12.922 128.197 12.69C127.811 12.4387 127.347 12.313 126.805 12.313C126.264 12.313 125.79 12.4387 125.384 12.69C124.998 12.922 124.698 13.2603 124.485 13.705C124.273 14.1303 124.166 14.6523 124.166 15.271V16.257C124.166 16.9337 124.302 17.5137 124.572 17.997C124.843 18.4803 125.23 18.8477 125.732 19.099C126.235 19.331 126.844 19.447 127.559 19.447C128.294 19.447 128.893 19.3503 129.357 19.157C129.841 18.9637 130.343 18.6737 130.865 18.287L134.287 21.738C133.514 22.5693 132.557 23.2073 131.416 23.652C130.295 24.0773 128.942 24.29 127.356 24.29ZM148.13 24.29C146.757 24.29 145.616 24 144.708 23.42C143.818 22.8207 143.161 21.9217 142.736 20.723C142.31 19.505 142.098 17.9583 142.098 16.083C142.098 14.169 142.291 12.6127 142.678 11.414C143.084 10.196 143.731 9.297 144.621 8.717C145.51 8.137 146.68 7.847 148.13 7.847C149.522 7.847 150.798 8.18533 151.958 8.862C153.118 9.51933 154.046 10.4667 154.742 11.704C155.438 12.922 155.786 14.3817 155.786 16.083C155.786 17.7843 155.438 19.2537 154.742 20.491C154.046 21.709 153.118 22.6467 151.958 23.304C150.798 23.9613 149.522 24.29 148.13 24.29ZM137.545 29.626V8.137H143.78V10.283L143.809 16.083L144.099 21.883V29.626H137.545ZM146.564 19.186C147.047 19.186 147.482 19.07 147.869 18.838C148.255 18.606 148.565 18.258 148.797 17.794C149.029 17.33 149.145 16.7597 149.145 16.083C149.145 15.387 149.029 14.807 148.797 14.343C148.565 13.879 148.255 13.531 147.869 13.299C147.482 13.067 147.047 12.951 146.564 12.951C146.08 12.951 145.645 13.067 145.259 13.299C144.872 13.531 144.563 13.879 144.331 14.343C144.099 14.807 143.983 15.387 143.983 16.083C143.983 16.7597 144.099 17.33 144.331 17.794C144.563 18.258 144.872 18.606 145.259 18.838C145.645 19.07 146.08 19.186 146.564 19.186ZM157.85 24V8.137H164.085V12.922L163.07 11.559C163.554 10.3217 164.327 9.39367 165.39 8.775C166.454 8.15633 167.73 7.847 169.218 7.847V13.647C168.928 13.6083 168.667 13.5793 168.435 13.56C168.223 13.5407 168 13.531 167.768 13.531C166.782 13.531 165.97 13.792 165.332 14.314C164.714 14.8167 164.404 15.6963 164.404 16.953V24H157.85ZM171.076 24V8.137H177.63V24H171.076ZM174.353 6.861C173.154 6.861 172.197 6.542 171.482 5.904C170.767 5.266 170.409 4.47333 170.409 3.526C170.409 2.57867 170.767 1.786 171.482 1.148C172.197 0.509999 173.154 0.190999 174.353 0.190999C175.552 0.190999 176.509 0.490666 177.224 1.09C177.939 1.68933 178.297 2.46267 178.297 3.41C178.297 4.41533 177.939 5.24667 177.224 5.904C176.509 6.542 175.552 6.861 174.353 6.861ZM191.555 7.847C192.773 7.847 193.875 8.09833 194.861 8.601C195.847 9.08433 196.62 9.848 197.181 10.892C197.761 11.936 198.051 13.2893 198.051 14.952V24H191.497V16.083C191.497 15.097 191.323 14.401 190.975 13.995C190.627 13.5697 190.153 13.357 189.554 13.357C189.109 13.357 188.694 13.4633 188.307 13.676C187.94 13.8693 187.64 14.198 187.408 14.662C187.195 15.126 187.089 15.7543 187.089 16.547V24H180.535V8.137H186.77V12.777L185.523 11.443C186.142 10.2443 186.973 9.34533 188.017 8.746C189.08 8.14667 190.26 7.847 191.555 7.847ZM208.553 24.29C206.369 24.29 204.667 23.768 203.449 22.724C202.231 21.6607 201.622 20.0367 201.622 17.852V4.57H208.176V17.794C208.176 18.2773 208.302 18.6543 208.553 18.925C208.824 19.1957 209.153 19.331 209.539 19.331C210.1 19.331 210.593 19.186 211.018 18.896L212.584 23.449C212.082 23.739 211.473 23.9517 210.757 24.087C210.061 24.2223 209.327 24.29 208.553 24.29ZM199.447 13.792V9.007H211.424V13.792H199.447Z" fill="#131316"/>
<defs>
<linearGradient id="paint0_linear_1_720" x1="-4.06622e-06" y1="-14.3279" x2="193.685" y2="1.47836" gradientUnits="userSpaceOnUse">
<stop stop-color="#572285"/>
<stop offset="0.0001" stop-color="#572285"/>
<stop offset="1" stop-color="#9214FF"/>
</linearGradient>
</defs>
</svg>
